<svg xmlns="http://www.w3.org/2000/svg" xmlns:xlink="http://www.w3.org/1999/xlink" width="500" zoomAndPan="magnify" viewBox="0 0 375 374.999991" height="500" preserveAspectRatio="xMidYMid meet" version="1.0"><defs><clipPath id="724cb68d47"><path d="M 28.519531 46.820312 L 344.269531 46.820312 L 344.269531 362.570312 L 28.519531 362.570312 Z M 28.519531 46.820312 " clip-rule="nonzero"/></clipPath><clipPath id="2adaec042f"><path d="M 78 88.050781 L 287 88.050781 L 287 330.300781 L 78 330.300781 Z M 78 88.050781 " clip-rule="nonzero"/></clipPath></defs><g clip-path="url(#724cb68d47)"><path fill="#000000" d="M 186.394531 362.570312 C 99.367188 362.570312 28.519531 291.71875 28.519531 204.695312 C 28.519531 117.667969 99.367188 46.820312 186.394531 46.820312 C 273.417969 46.820312 344.269531 117.667969 344.269531 204.695312 C 344.269531 291.71875 273.417969 362.570312 186.394531 362.570312 Z M 186.394531 49.152344 C 100.613281 49.152344 30.851562 118.914062 30.851562 204.695312 C 30.851562 290.476562 100.613281 360.234375 186.394531 360.234375 C 272.175781 360.234375 341.933594 290.476562 341.933594 204.695312 C 341.933594 118.914062 272.175781 49.152344 186.394531 49.152344 Z M 186.394531 49.152344 " fill-opacity="1" fill-rule="nonzero"/></g><g clip-path="url(#2adaec042f)"><path fill="#000000" d="M 175.835938 134.585938 C 176.1875 134.585938 176.542969 134.539062 176.894531 134.441406 C 178.234375 134.066406 179.269531 133.003906 179.613281 131.648438 L 189.390625 93.3125 C 189.734375 91.960938 189.332031 90.53125 188.335938 89.554688 C 187.34375 88.582031 185.914062 88.207031 184.558594 88.589844 L 146.515625 99.28125 C 145.175781 99.65625 144.140625 100.71875 143.796875 102.074219 C 143.449219 103.421875 143.855469 104.855469 144.851562 105.828125 L 173.113281 133.480469 C 173.851562 134.195312 174.832031 134.585938 175.835938 134.585938 Z M 180.167969 97.925781 L 173.734375 123.171875 L 155.121094 104.96875 Z M 120.089844 258.015625 C 124.792969 261.675781 132.8125 261.675781 137.511719 258.015625 C 139.210938 256.683594 141.652344 256.996094 142.976562 258.695312 C 144.300781 260.398438 143.996094 262.847656 142.296875 264.167969 C 138.585938 267.0625 133.789062 268.65625 128.800781 268.65625 C 123.808594 268.65625 119.015625 267.0625 115.304688 264.167969 C 113.605469 262.847656 113.300781 260.394531 114.621094 258.695312 C 115.941406 257 118.394531 256.683594 120.089844 258.015625 Z M 217.023438 222.496094 C 217.023438 228.222656 214.796875 233.609375 210.753906 237.660156 L 198.863281 249.566406 C 196.460938 251.972656 193.273438 253.292969 189.882812 253.292969 C 182.878906 253.292969 177.183594 247.589844 177.183594 240.578125 L 177.183594 240.039062 C 177.183594 237.882812 178.925781 236.136719 181.082031 236.136719 C 183.234375 236.136719 184.976562 237.882812 184.976562 240.039062 L 184.976562 240.578125 C 184.976562 243.285156 187.175781 245.492188 189.882812 245.492188 C 191.191406 245.492188 192.421875 244.980469 193.355469 244.050781 L 205.246094 232.140625 C 207.816406 229.5625 209.234375 226.140625 209.234375 222.496094 C 209.234375 214.96875 203.121094 208.851562 195.609375 208.851562 C 191.078125 208.851562 186.851562 211.101562 184.308594 214.867188 C 183.109375 216.652344 180.679688 217.128906 178.902344 215.917969 C 177.121094 214.714844 176.652344 212.285156 177.855469 210.503906 C 181.847656 204.582031 188.484375 201.046875 195.609375 201.046875 C 207.414062 201.046875 217.023438 210.671875 217.023438 222.496094 Z M 124.949219 220.023438 C 122.792969 220.023438 121.054688 218.277344 121.054688 216.121094 L 121.054688 208.183594 C 121.054688 206.027344 122.792969 204.28125 124.949219 204.28125 C 127.101562 204.28125 128.84375 206.027344 128.84375 208.183594 L 128.84375 216.121094 C 128.84375 218.277344 127.101562 220.023438 124.949219 220.023438 Z M 271.636719 95.40625 C 263.28125 95.40625 256.480469 102.214844 256.480469 110.582031 C 256.480469 114.65625 258.113281 118.34375 260.730469 121.074219 L 255.902344 129.058594 L 248.125 121.261719 C 248.128906 121.097656 248.171875 120.9375 248.171875 120.773438 C 248.171875 116.15625 246.375 111.816406 243.113281 108.554688 C 233 98.421875 215.164062 100.824219 214.40625 100.925781 C 212.691406 101.167969 211.339844 102.519531 211.097656 104.242188 C 210.992188 104.996094 208.589844 122.851562 218.714844 132.992188 C 222.078125 136.359375 226.496094 138.042969 230.914062 138.042969 C 231.09375 138.042969 231.273438 137.996094 231.453125 137.992188 L 243.339844 149.898438 L 233.660156 165.96875 C 232.320312 165.582031 230.933594 165.308594 229.472656 165.308594 C 226.769531 165.308594 224.265625 166.078125 222.066406 167.328125 L 210.089844 155.082031 C 211.433594 152.816406 212.257812 150.207031 212.257812 147.386719 C 212.257812 139.015625 205.460938 132.207031 197.101562 132.207031 C 188.746094 132.207031 181.949219 139.015625 181.949219 147.386719 C 181.949219 151.539062 183.632812 155.308594 186.34375 158.050781 L 172.75 181.214844 L 165.234375 181.214844 C 170.777344 173.277344 172.78125 163.191406 170.363281 153.570312 C 170.351562 153.523438 170.367188 153.476562 170.355469 153.429688 C 168.140625 144.644531 162.644531 137.246094 154.878906 132.605469 C 147.109375 127.964844 138.007812 126.628906 129.230469 128.847656 C 129.199219 128.855469 129.179688 128.878906 129.148438 128.886719 C 111.085938 133.503906 100.105469 151.9375 104.667969 170.046875 C 105.710938 174.136719 107.515625 177.863281 109.878906 181.214844 L 101.371094 181.214844 C 99.410156 181.214844 97.757812 182.671875 97.507812 184.617188 C 96.929688 189.109375 96.65625 192.816406 96.65625 196.269531 L 96.65625 207.90625 L 80.34375 233.023438 C 78.429688 235.957031 77.875 239.566406 78.832031 242.925781 C 79.792969 246.292969 82.164062 249.074219 85.351562 250.554688 L 97.066406 256.011719 L 101.695312 282.488281 C 104.058594 295.953125 115.683594 305.726562 129.332031 305.726562 L 150.796875 305.726562 C 153.625 305.726562 156.078125 307.710938 156.640625 310.457031 L 160.109375 327.195312 C 160.496094 329.039062 162.113281 330.300781 163.921875 330.300781 C 164.183594 330.300781 164.453125 330.273438 164.71875 330.21875 C 166.824219 329.785156 168.179688 327.714844 167.738281 325.605469 L 164.273438 308.878906 C 162.972656 302.53125 157.304688 297.921875 150.796875 297.921875 L 129.332031 297.921875 C 119.476562 297.921875 111.078125 290.859375 109.371094 281.136719 L 104.390625 252.652344 C 104.167969 251.398438 103.34375 250.328125 102.195312 249.792969 L 88.640625 243.480469 C 87.492188 242.941406 86.671875 241.984375 86.328125 240.78125 C 85.988281 239.582031 86.179688 238.34375 86.871094 237.285156 L 103.820312 211.1875 C 104.230469 210.554688 104.453125 209.8125 104.453125 209.058594 L 104.453125 196.265625 C 104.453125 194.011719 104.578125 191.691406 104.84375 189.011719 L 216.960938 189.011719 C 219.691406 193.019531 224.285156 195.65625 229.480469 195.65625 C 234.675781 195.65625 239.265625 193.019531 241.996094 189.011719 L 265.738281 189.011719 C 265.007812 205.5 259.847656 225.9375 252.175781 242.273438 C 249.121094 248.75 245.285156 257.183594 241.664062 265.398438 C 236.507812 276.941406 235.132812 289.667969 237.703125 302.191406 L 242.882812 327.199219 C 243.269531 329.042969 244.890625 330.304688 246.699219 330.304688 C 246.957031 330.304688 247.226562 330.277344 247.492188 330.222656 C 249.601562 329.789062 250.957031 327.71875 250.515625 325.609375 L 245.335938 300.613281 C 243.097656 289.703125 244.28125 278.625 248.785156 268.566406 C 252.386719 260.390625 256.191406 252.023438 259.222656 245.597656 C 267.96875 226.980469 273.617188 203.238281 273.617188 185.109375 C 273.617188 182.953125 271.875 181.207031 269.722656 181.207031 L 244.558594 181.207031 C 244.570312 180.960938 244.632812 180.726562 244.632812 180.472656 C 244.632812 176.390625 242.992188 172.691406 240.363281 169.960938 L 249.027344 155.578125 L 257.503906 164.066406 C 259.742188 166.316406 262.703125 167.558594 265.832031 167.558594 C 268.984375 167.558594 271.953125 166.320312 274.191406 164.070312 C 278.757812 159.496094 278.769531 152.003906 274.191406 147.359375 L 261.589844 134.738281 L 267.429688 125.085938 C 268.777344 125.476562 270.175781 125.753906 271.648438 125.753906 C 280.003906 125.753906 286.800781 118.949219 286.800781 110.578125 C 286.789062 102.214844 279.992188 95.40625 271.636719 95.40625 Z M 197.105469 140.003906 C 201.167969 140.003906 204.472656 143.3125 204.472656 147.382812 C 204.472656 151.445312 201.167969 154.753906 197.105469 154.753906 C 193.046875 154.753906 189.742188 151.445312 189.742188 147.382812 C 189.742188 143.3125 193.046875 140.003906 197.105469 140.003906 Z M 150.894531 139.304688 C 155.742188 142.203125 159.441406 146.496094 161.578125 151.621094 L 140.351562 156.996094 L 134.992188 135.734375 C 140.5 135.175781 146.042969 136.402344 150.894531 139.304688 Z M 112.234375 168.121094 C 109.039062 155.453125 115.757812 142.597656 127.453125 137.691406 L 133.753906 162.691406 C 134.007812 163.691406 134.648438 164.554688 135.535156 165.082031 C 136.140625 165.449219 136.835938 165.636719 137.53125 165.636719 C 137.851562 165.636719 138.171875 165.597656 138.488281 165.519531 L 163.46875 159.199219 C 164.289062 167.414062 161.085938 175.621094 154.84375 181.214844 L 120.273438 181.214844 C 116.347656 177.738281 113.542969 173.269531 112.234375 168.121094 Z M 181.792969 181.210938 L 193.097656 161.949219 C 194.382812 162.304688 195.710938 162.558594 197.105469 162.558594 C 199.8125 162.558594 202.320312 161.785156 204.519531 160.53125 L 216.492188 172.777344 C 215.144531 175.042969 214.320312 177.65625 214.320312 180.480469 C 214.320312 180.730469 214.382812 180.964844 214.394531 181.214844 L 181.792969 181.214844 Z M 229.472656 187.855469 C 226.527344 187.855469 224 186.101562 222.824219 183.597656 C 222.820312 183.589844 222.816406 183.585938 222.8125 183.578125 C 222.371094 182.636719 222.109375 181.589844 222.109375 180.480469 C 222.109375 176.417969 225.410156 173.109375 229.472656 173.109375 C 233.53125 173.109375 236.835938 176.417969 236.835938 180.480469 C 236.835938 184.546875 233.53125 187.855469 229.472656 187.855469 Z M 218.589844 108.429688 C 223.316406 108.289062 232.328125 108.789062 237.605469 114.070312 C 239.394531 115.863281 240.378906 118.238281 240.378906 120.773438 C 240.378906 123.300781 239.394531 125.683594 237.605469 127.476562 C 233.917969 131.171875 227.914062 131.171875 224.222656 127.476562 C 218.949219 122.191406 218.445312 113.160156 218.589844 108.429688 Z M 268.671875 158.558594 C 267.144531 160.089844 264.585938 160.132812 263.007812 158.554688 L 239.9375 135.449219 C 241.0625 134.753906 242.140625 133.964844 243.113281 132.988281 C 244.09375 132.007812 244.890625 130.914062 245.59375 129.761719 L 268.65625 152.855469 C 270.214844 154.441406 270.222656 157.003906 268.671875 158.558594 Z M 271.636719 117.953125 C 267.574219 117.953125 264.273438 114.644531 264.273438 110.578125 C 264.273438 106.511719 267.574219 103.203125 271.636719 103.203125 C 275.695312 103.203125 279 106.511719 279 110.578125 C 279 114.644531 275.695312 117.953125 271.636719 117.953125 Z M 91.882812 115.511719 L 100.722656 119.785156 L 107.191406 127.183594 C 107.910156 128.007812 108.9375 128.484375 110.03125 128.511719 C 110.0625 128.511719 110.089844 128.511719 110.113281 128.511719 C 111.175781 128.511719 112.191406 128.082031 112.925781 127.308594 L 119.714844 120.214844 L 128.738281 116.339844 C 129.742188 115.910156 130.519531 115.074219 130.878906 114.039062 C 131.238281 113.007812 131.148438 111.871094 130.632812 110.910156 L 125.996094 102.246094 L 125.105469 92.457031 C 125.007812 91.367188 124.453125 90.371094 123.582031 89.707031 C 122.710938 89.042969 121.597656 88.773438 120.53125 88.972656 L 110.875 90.71875 L 101.304688 88.539062 C 100.246094 88.296875 99.117188 88.515625 98.222656 89.136719 C 97.328125 89.761719 96.726562 90.734375 96.578125 91.820312 L 95.253906 101.558594 L 90.226562 110.003906 C 89.664062 110.941406 89.53125 112.074219 89.839844 113.125 C 90.160156 114.167969 90.898438 115.035156 91.882812 115.511719 Z M 102.351562 104.871094 C 102.621094 104.417969 102.796875 103.917969 102.867188 103.398438 L 103.722656 97.09375 L 109.925781 98.503906 C 110.4375 98.617188 110.96875 98.632812 111.480469 98.539062 L 117.730469 97.40625 L 118.304688 103.746094 C 118.351562 104.269531 118.503906 104.777344 118.75 105.234375 L 121.753906 110.847656 L 115.910156 113.359375 C 115.433594 113.566406 115 113.867188 114.636719 114.246094 L 110.246094 118.835938 L 106.058594 114.042969 C 105.71875 113.652344 105.292969 113.332031 104.820312 113.105469 L 99.097656 110.339844 Z M 102.351562 104.871094 " fill-opacity="1" fill-rule="nonzero"/></g></svg>